:SAMPLES-PER-SECOND 30
:FULLY-SPECIFIED
:DEGREES
206
root  60.7115 38.1862 1.51157 176.5 -5.85054 179.621
RightUpLeg  -6.43429 -8.1705 -10.4019
RightLeg  63.7311 1.41901 2.4909
RightFoot  16.187 -2.65528 11.2289
RightToes  -5.8209e-011 0 -3.6325e-017
Spine  7.80951 1.60461 1.94801
Spine1  6.74602 3.25569 -7.40344
HEad  38.9924 -3.87017 178.095
LeftShoulder1  6.56846 -9.27065 -44.7705
LeftArm  -11.1429 24.6501 -27.9029
LeftForeArm  24.4596 -13.2325 -4.38917
LeftHand  -0.244104 0.0205437 5.32207
RightShoulder  6.04953 9.53279 40.2521
RightArm  -2.06143 -19.8713 35.6154
RightForeArm  14.3424 15.6675 5.56117
RightHand  -0.102905 -3.62039 -5.72797
LeftUpLeg  -10.8505 5.90285 -13.4696
LeftLeg  15.2044 28.267 0.933858
LeftFoot  -10.609 -0.0470047 17.3388
LeftToes  1.76439e-010 -1.07097e-011 2.32476e-011
207
root  60.6041 38.4626 0.405188 176.209 -10.6587 -179.586
RightUpLeg  -11.5839 -5.46556 -9.57488
RightLeg  66.7481 0.455074 0.493989
RightFoot  13.9151 -1.64303 7.74968
RightToes  -5.8209e-011 0 -3.6325e-017
Spine  8.53135 0.40681 2.55412
Spine1  6.38526 1.81073 -6.39286
HEad  39.4603 -5.20431 176.267
LeftShoulder1  6.70872 -9.38084 -45.358
LeftArm  -8.58698 22.2031 -28.5714
LeftForeArm  23.3123 -18.3801 -4.00491
LeftHand  -0.244104 0.0205437 5.32207
RightShoulder  5.84469 9.20271 39.8644
RightArm  1.09407 -20.9446 35.0017
RightForeArm  14.9293 17.2949 5.21685
RightHand  -0.129706 -3.06672 -5.81879
LeftUpLeg  -7.37317 2.81567 -13.0248
LeftLeg  13.3758 26.9112 -0.00305788
LeftFoot  -10.8807 -0.00573737 17.5918
LeftToes  1.76439e-010 -1.07097e-011 2.32476e-011
208
root  60.4981 38.6966 -0.651892 176.035 -15.8857 -178.415
RightUpLeg  -16.2752 -3.18776 -8.62019
RightLeg  66.5669 -1.03601 -3.26662
RightFoot  12.0599 -0.611324 3.35107
RightToes  -5.8209e-011 0 -3.6325e-017
Spine  8.98984 -0.593906 2.88482
Spine1  6.04306 0.365595 -4.6501
HEad  40.0161 -6.01507 175.166
LeftShoulder1  6.91798 -9.63803 -45.8804
LeftArm  -6.57339 19.8198 -29.3228
LeftForeArm  24.4295 -24.2284 -3.86297
LeftHand  -0.244104 0.0205437 5.32207
RightShoulder  5.58337 8.81915 39.2122
RightArm  3.08932 -22.1644 34.2817
RightForeArm  13.5621 19.118 4.79298
RightHand  -0.146414 -2.85419 -6.16287
LeftUpLeg  -4.49129 1.14452 -12.2862
LeftLeg  12.1615 23.2388 -0.629352
LeftFoot  -11.2755 0.0581193 16.78
LeftToes  1.76439e-010 -1.07097e-011 2.32476e-011
209
root  60.397 38.9059 -1.70933 175.801 -20.9277 -177.16
RightUpLeg  -20.291 -1.29947 -7.77413
RightLeg  63.6142 -2.65798 -6.37931
RightFoot  10.2366 0.246058 -0.923621
RightToes  -5.8209e-011 0 -3.6325e-017
Spine  9.42734 -1.39503 2.97049
Spine1  5.61111 -0.897345 -2.74157
HEad  40.6393 -6.28523 175.135
LeftShoulder1  6.97892 -9.76341 -45.8467
LeftArm  -6.8693 17.6734 -30.285
LeftForeArm  29.0909 -30.4692 -5.02694
LeftHand  -0.244104 0.0205437 5.32207
RightShoulder  5.50744 8.76172 38.8231
RightArm  3.7438 -23.1468 33.2208
RightForeArm  10.567 20.0459 4.71238
RightHand  -0.148798 -2.96556 -6.53917
LeftUpLeg  -1.83133 0.466258 -11.1602
LeftLeg  11.104 18.7641 -1.24049
LeftFoot  -11.7494 0.129418 16.1883
LeftToes  1.76439e-010 -1.07097e-011 2.32476e-011
210
root  60.2518 39.1174 -2.7686 175.138 -25.9137 -175.905
RightUpLeg  -22.8012 -0.421101 -7.32244
RightLeg  57.6291 -4.21135 -7.58635
RightFoot  7.78022 0.406986 -2.05717
RightToes  -5.8209e-011 0 -3.6325e-017
Spine  10.2039 -2.25466 3.08755
Spine1  5.14409 -2.13504 -0.963304
HEad  41.3046 -6.42825 176.031
LeftShoulder1  6.95578 -9.80672 -45.5367
LeftArm  -6.56557 15.6309 -31.1563
LeftForeArm  32.9249 -36.4974 -6.31223
LeftHand  -0.244104 0.0205437 5.32207
RightShoulder  5.58423 8.91561 38.8819
RightArm  2.84416 -23.1766 31.8831
RightForeArm  8.99147 19.1481 5.01239
RightHand  -0.165252 -2.83924 -6.99697
LeftUpLeg  1.20284 0.283171 -9.92675
LeftLeg  9.73531 14.1402 -1.64851
LeftFoot  -12.0432 0.174471 16.4181
LeftToes  1.76439e-010 -1.07097e-011 2.32476e-011
211
root  60.0621 39.195 -3.85962 174.27 -30.3749 -175.057
RightUpLeg  -23.743 -0.272714 -7.3866
RightLeg  48.674 -5.02502 -6.45786
RightFoot  6.00945 0.0664322 -0.170924
RightToes  -5.8209e-011 0 -3.6325e-017
Spine  11.0522 -2.77903 2.82746
Spine1  4.86875 -2.99107 0.390163
HEad  41.9461 -6.60978 177.208
LeftShoulder1  7.06148 -10.0226 -45.4908
LeftArm  -5.67207 13.2823 -31.5999
LeftForeArm  35.2442 -41.0613 -7.46102
LeftHand  -0.244104 0.0205437 5.32207
RightShoulder  5.6104 8.94979 38.9648
RightArm  0.0314383 -22.195 30.6025
RightForeArm  10.8102 16.44 5.58964
RightHand  -0.191579 -2.54568 -7.42043
LeftUpLeg  3.84071 0.496305 -8.91888
LeftLeg  9.68506 9.74896 -1.49059
LeftFoot  -13.0629 0.324253 16.2853
LeftToes  1.76439e-010 -1.07097e-011 2.32476e-011
212
root  59.8099 39.1237 -5.04749 173.907 -33.7377 -174.728
RightUpLeg  -23.7987 -0.835046 -7.36411
RightLeg  37.0784 -4.1457 -3.66118
RightFoot  5.63641 -0.244764 1.88839
RightToes  -5.8209e-011 0 -3.6325e-017
Spine  11.197 -2.6788 2.18765
Spine1  4.781 -3.14843 1.39006
HEad  42.4514 -6.70941 178.216
LeftShoulder1  7.25185 -10.3527 -45.6128
LeftArm  -4.50357 10.7583 -31.9416
LeftForeArm  36.3988 -43.9025 -8.28967
LeftHand  -0.244104 0.0205437 5.32207
RightShoulder  5.56874 8.89718 38.8266
RightArm  -3.2591 -20.8092 29.3951
RightForeArm  13.8516 12.9866 6.15673
RightHand  -0.1908 -2.66017 -7.68376
LeftUpLeg  5.6155 1.04232 -7.9921
LeftLeg  10.8702 5.87951 -1.35811
LeftFoot  -14.8526 0.568798 15.5255
LeftToes  1.76439e-010 -1.07097e-011 2.32476e-011
213
root  59.4753 39.0486 -6.28187 174.091 -36.4816 -174.556
RightUpLeg  -23.2126 -3.78999 -6.39327
RightLeg  23.2747 -0.476829 -0.595828
RightFoot  5.79949 -0.555501 3.94487
RightToes  -5.8209e-011 0 -3.6325e-017
Spine  10.7518 -2.42766 1.68852
Spine1  4.68271 -3.07916 2.44074
HEad  42.8156 -6.59364 179.145
LeftShoulder1  7.34461 -10.5616 -45.5085
LeftArm  -3.55856 8.6963 -32.3913
LeftForeArm  37.1776 -45.7902 -8.88794
LeftHand  -0.244104 0.0205437 5.32207
RightShoulder  5.59441 8.97468 38.7563
RightArm  -5.02509 -19.409 28.0765
RightForeArm  15.143 9.83309 6.47187
RightHand  -0.167821 -3.12971 -8.00379
LeftUpLeg  7.22647 1.56536 -6.92457
LeftLeg  11.3904 2.42455 -1.57311
LeftFoot  -16.2786 0.746995 14.9393
LeftToes  1.76439e-010 -1.07097e-011 2.32476e-011
214
root  59.0814 38.9435 -7.54031 174.161 -39.4112 -174.497
RightUpLeg  -21.5598 -8.24138 -5.30776
RightLeg  9.17888 3.86233 1.82335
RightFoot  5.42854 -1.02294 7.20219
RightToes  -5.8209e-011 0 -3.6325e-017
Spine  10.5737 -2.4427 1.15089
Spine1  4.48074 -3.29118 3.54105
HEad  43.2224 -6.20877 -179.925
LeftShoulder1  7.38275 -10.7053 -45.2751
LeftArm  -3.06853 7.31337 -32.6411
LeftForeArm  37.8372 -47.0633 -9.30349
LeftHand  -0.244104 0.0205437 5.32207
RightShoulder  5.67946 9.11045 38.94
RightArm  -5.58047 -17.9258 26.7784
RightForeArm  14.6358 7.33757 6.5128
RightHand  -0.166827 -3.37459 -8.8575
LeftUpLeg  9.1357 1.99051 -5.84346
LeftLeg  11.7151 -0.896306 -1.71715
LeftFoot  -17.7118 0.923081 14.5844
LeftToes  1.76439e-010 -1.07097e-011 2.32476e-011
215
root  58.6219 38.7278 -8.87632 173.701 -42.4136 -174.551
RightUpLeg  -19.2767 -7.43902 -6.51151
RightLeg  -0.697238 1.71033 4.00587
RightFoot  4.03834 -1.31806 9.9399
RightToes  -5.8209e-011 0 -3.6325e-017
Spine  10.8237 -2.54055 0.500068
Spine1  4.39994 -3.59677 4.50522
HEad  43.7985 -5.63804 -179.244
LeftShoulder1  7.51133 -10.9639 -45.2406
LeftArm  -2.9138 6.28778 -32.5687
LeftForeArm  37.9822 -47.1681 -9.33455
LeftHand  -0.244104 0.0205437 5.32207
RightShoulder  5.6945 9.09116 39.1199
RightArm  -6.13878 -16.3754 25.8698
RightForeArm  13.2931 5.66975 6.32811
RightHand  -0.194068 -3.32354 -10.2412
LeftUpLeg  11.3769 2.3705 -4.74992
LeftLeg  12.8938 -3.9196 -1.65538
LeftFoot  -19.663 1.13588 13.9169
LeftToes  1.76439e-010 -1.07097e-011 2.32476e-011
